<?xml version="1.0" encoding="UTF-8"?>
<svg width="140px" height="42px" viewBox="0 0 140 42" version="1.1" xmlns="http://www.w3.org/2000/svg" xmlns:xlink="http://www.w3.org/1999/xlink">
    <title>Group 11 Copy</title>
    <defs>
        <polygon id="path-1" points="0.510363636 0.890909091 91.8807273 0.890909091 91.8807273 24.0164909 0.510363636 24.0164909"></polygon>
        <path d="M7.49763636,2.20181818 C3.23272727,4.53345455 0.460727273,8.83654545 0.0521818182,13.6156364 L0.0521818182,13.6156364 L0.0521818182,17.4923636 C0.226545455,18.1414545 0.827272727,18.6123636 1.52981818,18.5945455 L1.52981818,18.5945455 C2.34690909,18.5881818 3.00618182,17.9225455 3.00618182,17.1054545 L3.00618182,17.1054545 L3.00618182,15.0818182 C2.95781818,10.8054545 5.25254545,6.84472727 8.98672727,4.76 L8.98672727,4.76 C12.6623636,2.55945455 17.2505455,2.55945455 20.9249091,4.76 L20.9249091,4.76 L22.6812727,5.79090909 C22.6863636,5.79345455 22.6914545,5.796 22.6952727,5.79854545 L22.6952727,5.79854545 C23.3965455,6.19945455 24.2912727,5.95763636 24.6921818,5.25636364 L24.6921818,5.25636364 L24.7176364,5.25636364 C25.1096364,4.54745455 24.8741818,3.65527273 24.1843636,3.23272727 L24.1843636,3.23272727 L22.4012727,2.20181818 C20.1078182,0.827272727 17.5292727,0.14 14.9507273,0.14 L14.9507273,0.14 C12.3709091,0.14 9.79109091,0.827272727 7.49763636,2.20181818 M27.118,6.76581818 C26.7412727,7.49 27.0238182,8.38090909 27.748,8.75636364 L27.748,8.75636364 L29.4776364,9.78727273 C33.2130909,11.8681818 35.5065455,15.8327273 35.4467273,20.1090909 L35.4467273,20.1090909 C35.4976364,24.3867273 33.208,28.3487273 29.4776364,30.4436364 L29.4776364,30.4436364 L20.8625455,35.4187273 C17.1830909,37.6230909 12.5898182,37.6230909 8.91036364,35.4187273 L8.91036364,35.4187273 C5.17490909,33.3416364 2.88909091,29.3732727 2.968,25.0981818 L2.968,25.0981818 L2.968,23.0732727 C2.954,22.26 2.29345455,21.6045455 1.47890909,21.5981818 L1.47890909,21.5981818 C0.794181818,21.6045455 0.221454545,22.0703636 0.0521818182,22.7016364 L0.0521818182,22.7016364 L0.0521818182,26.5414545 C0.455636364,31.3078182 3.18818182,35.6109091 7.40854545,37.9909091 L7.40854545,37.9909091 C12.0005455,40.726 17.7214545,40.726 22.3134545,37.9909091 L22.3134545,37.9909091 L30.9794545,33.0018182 C35.6605455,30.4156364 38.5305455,25.4545455 38.4376364,20.1090909 L38.4376364,20.1090909 C38.5038182,14.7763636 35.6401818,9.83563636 30.9794545,7.24181818 L30.9794545,7.24181818 L29.2370909,6.21090909 C29.1950909,6.18418182 29.1530909,6.15872727 29.1085455,6.13709091 L29.1085455,6.13709091 C28.8909091,6.02381818 28.658,5.96909091 28.4289091,5.96909091 L28.4289091,5.96909091 C27.8956364,5.96909091 27.3814545,6.25927273 27.118,6.76581818 M10.4885455,7.40727273 C7.69363636,8.96890909 5.97163636,11.9305455 5.99709091,15.1314545 L5.99709091,15.1314545 L5.99709091,25.0981818 C5.93981818,28.3092727 7.67072727,31.2836364 10.4885455,32.8236364 L10.4885455,32.8236364 C13.2325455,34.4667273 16.6561818,34.4667273 19.3989091,32.8236364 L19.3989091,32.8236364 L21.154,31.7927273 C21.8450909,31.3650909 22.0601818,30.4614545 21.6389091,29.7703636 L21.6389091,29.7703636 C21.2392727,29.0652727 20.3470909,28.8196364 19.6432727,29.218 L19.6432727,29.218 C19.6330909,29.2230909 19.6241818,29.2294545 19.6152727,29.2345455 L19.6152727,29.2345455 L17.8716364,30.2654545 C16.0198182,31.3345455 13.7403636,31.3345455 11.8885455,30.2654545 L11.8885455,30.2654545 C10.0290909,29.218 8.89509091,27.2325455 8.93709091,25.0981818 L8.93709091,25.0981818 L8.93709091,15.1314545 C8.90527273,12.9881818 10.0609091,11.0001818 11.9407273,9.96672727 L11.9407273,9.96672727 C13.7874545,8.88363636 16.0758182,8.88363636 17.9212727,9.96672727 L17.9212727,9.96672727 L26.5376364,14.9545455 C28.4021818,15.9930909 29.5438182,17.9747273 29.5030909,20.1090909 L29.5030909,20.1090909 C29.5387273,22.246 28.4009091,24.2289091 26.5376364,25.2763636 L26.5376364,25.2763636 L24.7812727,26.3072727 C24.1003636,26.754 23.9081818,27.6690909 24.3549091,28.3512727 L24.3549091,28.3512727 C24.7698182,28.9850909 25.5983636,29.2027273 26.2703636,28.8527273 L26.2703636,28.8527273 L28.0012727,27.8345455 C30.8025455,26.2767273 32.5245455,23.3125455 32.4952727,20.1090909 L32.4952727,20.1090909 C32.5474545,16.9030909 30.8165455,13.9325455 28.0012727,12.3963636 L28.0012727,12.3963636 L19.3989091,7.40727273 C18.0294545,6.57745455 16.4869091,6.16381818 14.9430909,6.16381818 L14.9430909,6.16381818 C13.4005455,6.16381818 11.858,6.57745455 10.4885455,7.40727273 M12.3314545,13.6970909 C12.0807273,14.1349091 11.9470909,14.6274545 11.9406517,15.1314545 L11.9406517,15.1314545 L11.9406517,17.1563636 C12.0158182,17.9747273 12.7425455,18.578 13.5609091,18.5003636 L13.5609091,18.5003636 C14.2749091,18.4354545 14.84,17.8690909 14.9061818,17.1563636 L14.9061818,17.1563636 L14.9061818,15.7563636 C14.9074545,15.6265455 14.9749091,15.5069091 15.0830909,15.4381818 L15.0830909,15.4381818 C15.204,15.4 15.3325455,15.4 15.4534545,15.4381818 L15.4534545,15.4381818 L19.2716364,17.6018182 L23.0885455,19.8049091 C23.2132727,19.8507273 23.2883636,19.978 23.268,20.1090909 L23.268,20.1090909 C23.2769091,20.2414545 23.2069091,20.3674545 23.0885455,20.4272727 L23.0885455,20.4272727 L19.2716364,22.5781818 L15.4534545,24.78 C15.3350909,24.8309091 15.2027273,24.8309091 15.0830909,24.78 L15.0830909,24.78 C14.9634545,24.7303636 14.8896364,24.6056364 14.9061818,24.4745455 L14.9061818,24.4745455 L14.9061818,23.0732727 C14.8298182,22.2561818 14.1043636,21.6529091 13.2847273,21.7292727 L13.2847273,21.7292727 C12.572,21.7954545 12.0069091,22.3605455 11.9406517,23.0732727 L11.9406517,23.0732727 L11.9406517,25.0981818 C11.9330909,26.1545455 12.5045455,27.132 13.4298182,27.6436364 L13.4298182,27.6436364 C14.3461818,28.1794545 15.4789091,28.1794545 16.3952727,27.6436364 L16.3952727,27.6436364 L25.0116364,22.6558182 C25.9356364,22.1429091 26.5070909,21.1667273 26.5007799,20.1090909 L26.5007799,20.1090909 C26.5007799,19.054 25.9318182,18.0803636 25.0116364,17.5636364 L25.0116364,17.5636364 L16.3952727,12.5872727 C15.9281818,12.3212727 15.4216364,12.1952705 14.9201818,12.1952705 L14.9201818,12.1952705 C13.8867273,12.194 12.8812727,12.7349091 12.3314545,13.6970909" id="path-3"></path>
        <linearGradient x1="47.6806534%" y1="125.735079%" x2="53.1733488%" y2="-48.9282241%" id="linearGradient-5">
            <stop stop-color="#FB6723" offset="0%"></stop>
            <stop stop-color="#FF9500" offset="100%"></stop>
        </linearGradient>
    </defs>
    <g id="Page-1" stroke="none" stroke-width="1" fill="none" fill-rule="evenodd">
        <g id="Desktop-/-Home-1" transform="translate(-80.000000, -11.000000)">
            <g id="Group-11-Copy" transform="translate(80.000000, 11.000000)">
                <g id="Group-7" transform="translate(47.090909, 8.132727)">
                    <mask id="mask-2" fill="white">
                        <use xlink:href="#path-1"></use>
                    </mask>
                    <g id="Clip-2"></g>
                    <path d="M0.957090909,23.5709091 L3.60436364,23.5709091 L3.60436364,7.14 L0.957090909,7.14 L0.957090909,23.5709091 Z M2.30618182,0.890909091 C3.29636364,0.890909091 4.10072727,1.694 4.10072727,2.68545455 C4.10072727,3.67690909 3.29636364,4.48 2.30618182,4.48 C1.31472727,4.48 0.510363636,3.67690909 0.510363636,2.68545455 C0.518,1.69781818 1.31727273,0.897272727 2.30618182,0.890909091 L2.30618182,0.890909091 Z" id="Fill-1" fill="#FFFFFF" mask="url(#mask-2)"></path>
                    <path d="M15.9495636,6.68194545 C18.1870182,6.66158182 20.3417455,7.53594545 21.9313818,9.11285455 L21.9313818,0.891036364 L24.5773818,0.891036364 L24.5773818,23.5710364 L21.9313818,23.5710364 L21.9313818,21.5983091 C20.3162909,23.1332182 18.1781091,23.9986727 15.9495636,24.0164909 C11.1628364,24.0164909 7.28229091,20.1359455 7.28229091,15.3492182 C7.28229091,10.5624909 11.1628364,6.68194545 15.9495636,6.68194545 M15.9495636,9.38012727 C19.2459273,9.38012727 21.9186545,12.0528545 21.9186545,15.3492182 C21.9186545,18.6455818 19.2459273,21.3183091 15.9495636,21.3183091 C12.6532,21.3183091 9.98047273,18.6455818 9.98047273,15.3492182 C9.95247273,12.0808545 12.5793818,9.40812727 15.8464727,9.38012727 L15.9495636,9.38012727" id="Fill-3" fill="#FFFFFF" mask="url(#mask-2)"></path>
                    <path d="M37.2800909,6.68194545 C35.0464545,6.66412727 32.8980909,7.53976364 31.311,9.11285455 L31.311,7.14012727 L28.6637273,7.14012727 L28.6637273,23.5710364 L31.311,23.5710364 L31.311,15.3492182 C31.311,12.0528545 33.9837273,9.38012727 37.2800909,9.38012727 L37.2800909,6.68194545 Z" id="Fill-4" fill="#FFFFFF" mask="url(#mask-2)"></path>
                    <path d="M53.3160727,7.14 L56.0015273,7.14 L56.0015273,23.5709091 L53.3160727,23.5709091 L53.3160727,21.5981818 C51.7009818,23.1330909 49.5640727,23.9985455 47.3355273,24.0163636 C42.5729818,23.8330909 38.8604364,19.8252727 39.0437091,15.0627273 C39.2168,10.5572727 42.8300727,6.944 47.3355273,6.77090909 C49.5742545,6.75054545 51.7264364,7.62618182 53.3160727,9.20181818 L53.3160727,7.14 Z M47.3355273,9.38 C50.6318909,9.38 53.3033455,12.0527273 53.3033455,15.3490909 C53.3033455,18.6454545 50.6318909,21.3181818 47.3355273,21.3181818 C44.0378909,21.3181818 41.3651636,18.6454545 41.3651636,15.3490909 C41.3728,12.0552727 44.0417091,9.38763636 47.3355273,9.38 L47.3355273,9.38 Z" id="Fill-5" fill="#FFFFFF" mask="url(#mask-2)"></path>
                    <path d="M62.6962,7.14 L60.0489273,7.14 L60.0489273,23.5709091 L62.6962,23.5709091 L62.6962,15.3490909 C62.6987455,12.0527273 65.3740182,9.38254545 68.6703818,9.38509091 C71.9629273,9.38763636 74.6318364,12.0565455 74.6343818,15.3490909 L74.6343818,23.5709091 L77.2956545,23.5709091 L77.2956545,15.3490909 C77.2982,12.0527273 79.9722,9.38254545 83.2685636,9.38509091 C86.5611091,9.38763636 89.2312909,12.0565455 89.2338364,15.3490909 L89.2338364,23.5709091 L91.8811091,23.5709091 L91.8811091,15.3490909 C91.8747455,10.584 88.0069273,6.72509091 83.2405636,6.73017679 C80.2763818,6.734 77.5222,8.25872727 75.9452909,10.7672727 C74.3620182,8.25363636 71.5976545,6.73017679 68.6271091,6.73272727 C66.3909273,6.70854545 64.2374727,7.57909091 62.6452909,9.15090909 L62.6452909,7.14 L62.6962,7.14 Z" id="Fill-6" fill="#FFFFFF" mask="url(#mask-2)"></path>
                </g>
                <g id="Group-10" transform="translate(-0.000000, 0.496364)">
                    <mask id="mask-4" fill="white">
                        <use xlink:href="#path-3"></use>
                    </mask>
                    <g id="Clip-9"></g>
                    <path d="M7.49763636,2.20181818 C3.23272727,4.53345455 0.460727273,8.83654545 0.0521818182,13.6156364 L0.0521818182,13.6156364 L0.0521818182,17.4923636 C0.226545455,18.1414545 0.827272727,18.6123636 1.52981818,18.5945455 L1.52981818,18.5945455 C2.34690909,18.5881818 3.00618182,17.9225455 3.00618182,17.1054545 L3.00618182,17.1054545 L3.00618182,15.0818182 C2.95781818,10.8054545 5.25254545,6.84472727 8.98672727,4.76 L8.98672727,4.76 C12.6623636,2.55945455 17.2505455,2.55945455 20.9249091,4.76 L20.9249091,4.76 L22.6812727,5.79090909 C22.6863636,5.79345455 22.6914545,5.796 22.6952727,5.79854545 L22.6952727,5.79854545 C23.3965455,6.19945455 24.2912727,5.95763636 24.6921818,5.25636364 L24.6921818,5.25636364 L24.7176364,5.25636364 C25.1096364,4.54745455 24.8741818,3.65527273 24.1843636,3.23272727 L24.1843636,3.23272727 L22.4012727,2.20181818 C20.1078182,0.827272727 17.5292727,0.14 14.9507273,0.14 L14.9507273,0.14 C12.3709091,0.14 9.79109091,0.827272727 7.49763636,2.20181818 M27.118,6.76581818 C26.7412727,7.49 27.0238182,8.38090909 27.748,8.75636364 L27.748,8.75636364 L29.4776364,9.78727273 C33.2130909,11.8681818 35.5065455,15.8327273 35.4467273,20.1090909 L35.4467273,20.1090909 C35.4976364,24.3867273 33.208,28.3487273 29.4776364,30.4436364 L29.4776364,30.4436364 L20.8625455,35.4187273 C17.1830909,37.6230909 12.5898182,37.6230909 8.91036364,35.4187273 L8.91036364,35.4187273 C5.17490909,33.3416364 2.88909091,29.3732727 2.968,25.0981818 L2.968,25.0981818 L2.968,23.0732727 C2.954,22.26 2.29345455,21.6045455 1.47890909,21.5981818 L1.47890909,21.5981818 C0.794181818,21.6045455 0.221454545,22.0703636 0.0521818182,22.7016364 L0.0521818182,22.7016364 L0.0521818182,26.5414545 C0.455636364,31.3078182 3.18818182,35.6109091 7.40854545,37.9909091 L7.40854545,37.9909091 C12.0005455,40.726 17.7214545,40.726 22.3134545,37.9909091 L22.3134545,37.9909091 L30.9794545,33.0018182 C35.6605455,30.4156364 38.5305455,25.4545455 38.4376364,20.1090909 L38.4376364,20.1090909 C38.5038182,14.7763636 35.6401818,9.83563636 30.9794545,7.24181818 L30.9794545,7.24181818 L29.2370909,6.21090909 C29.1950909,6.18418182 29.1530909,6.15872727 29.1085455,6.13709091 L29.1085455,6.13709091 C28.8909091,6.02381818 28.658,5.96909091 28.4289091,5.96909091 L28.4289091,5.96909091 C27.8956364,5.96909091 27.3814545,6.25927273 27.118,6.76581818 M10.4885455,7.40727273 C7.69363636,8.96890909 5.97163636,11.9305455 5.99709091,15.1314545 L5.99709091,15.1314545 L5.99709091,25.0981818 C5.93981818,28.3092727 7.67072727,31.2836364 10.4885455,32.8236364 L10.4885455,32.8236364 C13.2325455,34.4667273 16.6561818,34.4667273 19.3989091,32.8236364 L19.3989091,32.8236364 L21.154,31.7927273 C21.8450909,31.3650909 22.0601818,30.4614545 21.6389091,29.7703636 L21.6389091,29.7703636 C21.2392727,29.0652727 20.3470909,28.8196364 19.6432727,29.218 L19.6432727,29.218 C19.6330909,29.2230909 19.6241818,29.2294545 19.6152727,29.2345455 L19.6152727,29.2345455 L17.8716364,30.2654545 C16.0198182,31.3345455 13.7403636,31.3345455 11.8885455,30.2654545 L11.8885455,30.2654545 C10.0290909,29.218 8.89509091,27.2325455 8.93709091,25.0981818 L8.93709091,25.0981818 L8.93709091,15.1314545 C8.90527273,12.9881818 10.0609091,11.0001818 11.9407273,9.96672727 L11.9407273,9.96672727 C13.7874545,8.88363636 16.0758182,8.88363636 17.9212727,9.96672727 L17.9212727,9.96672727 L26.5376364,14.9545455 C28.4021818,15.9930909 29.5438182,17.9747273 29.5030909,20.1090909 L29.5030909,20.1090909 C29.5387273,22.246 28.4009091,24.2289091 26.5376364,25.2763636 L26.5376364,25.2763636 L24.7812727,26.3072727 C24.1003636,26.754 23.9081818,27.6690909 24.3549091,28.3512727 L24.3549091,28.3512727 C24.7698182,28.9850909 25.5983636,29.2027273 26.2703636,28.8527273 L26.2703636,28.8527273 L28.0012727,27.8345455 C30.8025455,26.2767273 32.5245455,23.3125455 32.4952727,20.1090909 L32.4952727,20.1090909 C32.5474545,16.9030909 30.8165455,13.9325455 28.0012727,12.3963636 L28.0012727,12.3963636 L19.3989091,7.40727273 C18.0294545,6.57745455 16.4869091,6.16381818 14.9430909,6.16381818 L14.9430909,6.16381818 C13.4005455,6.16381818 11.858,6.57745455 10.4885455,7.40727273 M12.3314545,13.6970909 C12.0807273,14.1349091 11.9470909,14.6274545 11.9406517,15.1314545 L11.9406517,15.1314545 L11.9406517,17.1563636 C12.0158182,17.9747273 12.7425455,18.578 13.5609091,18.5003636 L13.5609091,18.5003636 C14.2749091,18.4354545 14.84,17.8690909 14.9061818,17.1563636 L14.9061818,17.1563636 L14.9061818,15.7563636 C14.9074545,15.6265455 14.9749091,15.5069091 15.0830909,15.4381818 L15.0830909,15.4381818 C15.204,15.4 15.3325455,15.4 15.4534545,15.4381818 L15.4534545,15.4381818 L19.2716364,17.6018182 L23.0885455,19.8049091 C23.2132727,19.8507273 23.2883636,19.978 23.268,20.1090909 L23.268,20.1090909 C23.2769091,20.2414545 23.2069091,20.3674545 23.0885455,20.4272727 L23.0885455,20.4272727 L19.2716364,22.5781818 L15.4534545,24.78 C15.3350909,24.8309091 15.2027273,24.8309091 15.0830909,24.78 L15.0830909,24.78 C14.9634545,24.7303636 14.8896364,24.6056364 14.9061818,24.4745455 L14.9061818,24.4745455 L14.9061818,23.0732727 C14.8298182,22.2561818 14.1043636,21.6529091 13.2847273,21.7292727 L13.2847273,21.7292727 C12.572,21.7954545 12.0069091,22.3605455 11.9406517,23.0732727 L11.9406517,23.0732727 L11.9406517,25.0981818 C11.9330909,26.1545455 12.5045455,27.132 13.4298182,27.6436364 L13.4298182,27.6436364 C14.3461818,28.1794545 15.4789091,28.1794545 16.3952727,27.6436364 L16.3952727,27.6436364 L25.0116364,22.6558182 C25.9356364,22.1429091 26.5070909,21.1667273 26.5007799,20.1090909 L26.5007799,20.1090909 C26.5007799,19.054 25.9318182,18.0803636 25.0116364,17.5636364 L25.0116364,17.5636364 L16.3952727,12.5872727 C15.9281818,12.3212727 15.4216364,12.1952705 14.9201818,12.1952705 L14.9201818,12.1952705 C13.8867273,12.194 12.8812727,12.7349091 12.3314545,13.6970909" id="Fill-8" fill="url(#linearGradient-5)" mask="url(#mask-4)"></path>
                </g>
            </g>
        </g>
    </g>
</svg>
